HIERARCHY
ROOT SpineBase
{
  OFFSET 0.000000 0.000000 0.000000
  CHANNELS 6 Xposition Yposition Zposition Zrotation Xrotation Yrotation
  JOINT SpineMid
  {
    OFFSET -0.000000 29.936357 0.000000
    CHANNELS 3 Zrotation Xrotation Yrotation
    JOINT SpineShoulder
    {
      OFFSET 0.183773 22.066219 -0.766049
      CHANNELS 3 Zrotation Xrotation Yrotation
      JOINT Neck
      {
        OFFSET 0.146107 7.238105 -0.546439
        CHANNELS 3 Zrotation Xrotation Yrotation
        JOINT Head
        {
          OFFSET -0.982771 10.923046 0.732550
          CHANNELS 3 Zrotation Xrotation Yrotation
          End Site
          {
            OFFSET 0 0 0
          }
        }
      }
      JOINT ShoulderLeft
      {
        OFFSET -15.848722 -6.531653 -6.827586
        CHANNELS 3 Zrotation Xrotation Yrotation
        JOINT ElbowLeft
        {
          OFFSET -8.598619 -21.935742 4.618092
          CHANNELS 3 Zrotation Xrotation Yrotation
          JOINT WristLeft
          {
            OFFSET -1.091797 -17.606262 3.419963
            CHANNELS 3 Zrotation Xrotation Yrotation
            JOINT HandLeft
            {
              OFFSET 0.587654 -2.752498 2.306430
              CHANNELS 3 Zrotation Xrotation Yrotation
              JOINT HandTipLeft
              {
                OFFSET -0.613057 -6.066142 1.314327
                CHANNELS 3 Zrotation Xrotation Yrotation
                End Site
                {
                  OFFSET 0 0 0
                }
              }
              JOINT ThumbLeft
              {
                OFFSET 2.787180 0.701706 -0.820377
                CHANNELS 3 Zrotation Xrotation Yrotation
                End Site
                {
                  OFFSET 0 0 0
                }
              }
            }
          }
        }
      }
      JOINT ShoulderRight
      {
        OFFSET 16.030718 -7.835573 -3.134432
        CHANNELS 3 Zrotation Xrotation Yrotation
        JOINT ElbowRight
        {
          OFFSET 3.349361 -22.741272 8.077719
          CHANNELS 3 Zrotation Xrotation Yrotation
          JOINT WristRight
          {
            OFFSET -1.934795 -20.638481 8.807733
            CHANNELS 3 Zrotation Xrotation Yrotation
            JOINT HandRight
            {
              OFFSET 0.221766 -5.014230 1.239898
              CHANNELS 3 Zrotation Xrotation Yrotation
              JOINT HandTipRight
              {
                OFFSET 1.715371 -7.179044 0.083781
                CHANNELS 3 Zrotation Xrotation Yrotation
                End Site
                {
                  OFFSET 0 0 0
                }
              }
              JOINT ThumbRight
              {
                OFFSET 0.931888 -2.630430 -5.222363
                CHANNELS 3 Zrotation Xrotation Yrotation
                End Site
                {
                  OFFSET 0 0 0
                }
              }
            }
          }
        }
      }
    }
  }
  JOINT HipLeft
  {
    OFFSET -4.895229 1.555204 -4.635630
    CHANNELS 3 Zrotation Xrotation Yrotation
    JOINT KneeLeft
    {
      OFFSET -15.095471 -32.229678 5.144509
      CHANNELS 3 Zrotation Xrotation Yrotation
      JOINT AnkleLeft
      {
        OFFSET -6.472893 -30.818095 -3.699822
        CHANNELS 3 Zrotation Xrotation Yrotation
        JOINT FootLeft
        {
          OFFSET 1.521008 -4.419943 -11.085452
          CHANNELS 3 Zrotation Xrotation Yrotation
          End Site
          {
            OFFSET 0 0 0
          }
        }
      }
    }
  }
  JOINT HipRight
  {
    OFFSET 6.790107 -0.234008 -1.445557
    CHANNELS 3 Zrotation Xrotation Yrotation
    JOINT KneeRight
    {
      OFFSET 9.722982 -28.462055 21.454333
      CHANNELS 3 Zrotation Xrotation Yrotation
      JOINT AnkleRight
      {
        OFFSET 1.140495 -27.384838 12.378156
        CHANNELS 3 Zrotation Xrotation Yrotation
        JOINT FootRight
        {
          OFFSET 0.935096 -4.565670 -11.337953
          CHANNELS 3 Zrotation Xrotation Yrotation
          End Site
          {
            OFFSET 0 0 0
          }
        }
      }
    }
  }
}
MOTION
Frames: 10
Frame Time: 0.033333
-67.361037 72.440939 215.060596 0.000000 0.000000 -15.269556 -0.000000 0.000000 15.269556 -0.000000 0.000000 0.000000 -0.000000 0.000000 0.000000 0.000000 0.000000 0.000000 -0.000000 0.000000 0.000000 -0.000000 0.000000 0.000000 -0.000000 0.000000 0.000000 -0.000000 0.000000 0.000000 0.000000 0.000000 0.000000 0.000000 0.000000 0.000000 -0.000000 0.000000 0.000000 -0.000000 0.000000 0.000000 -0.000000 0.000000 0.000000 -0.000000 0.000000 0.000000 0.000000 0.000000 0.000000 0.000000 0.000000 0.000000 -0.000000 0.000000 15.269556 -0.000000 0.000000 0.000000 -0.000000 0.000000 0.000000 0.000000 0.000000 0.000000 -0.000000 0.000000 15.269556 -0.000000 0.000000 0.000000 -0.000000 0.000000 0.000000 0.000000 0.000000 0.000000
-67.356100 72.435330 215.023864 -0.019471 -0.039824 -15.339403 0.008243 0.043556 15.339393 -0.000000 0.000000 0.000000 -0.000000 0.000000 0.000000 0.000000 0.000000 0.000000 -0.000000 0.000000 0.000000 -0.000000 0.000000 0.000000 -0.000000 0.000000 0.000000 1.325140 2.142300 0.046058 0.000000 0.000000 0.000000 0.000000 0.000000 0.000000 -0.000000 0.000000 0.000000 -0.000000 0.000000 0.000000 1.427801 2.824620 0.445293 -2.065599 -5.816534 -1.289109 0.000000 0.000000 0.000000 0.000000 0.000000 0.000000 0.008243 0.043556 15.339393 -0.000000 0.000000 0.000000 -0.000000 0.000000 0.000000 0.000000 0.000000 0.000000 1.168017 -0.701601 15.686975 -0.915255 1.030860 -0.332687 -0.000000 0.000000 0.000000 0.000000 0.000000 0.000000
-67.359146 72.432282 215.001268 -0.037479 -0.065922 -15.385066 0.018647 0.073503 15.385033 -0.000000 0.000000 0.000000 -0.000000 0.000000 0.000000 0.000000 0.000000 0.000000 -0.000000 0.000000 0.000000 -0.000000 0.000000 0.000000 -0.000000 0.000000 0.000000 2.387260 3.827971 0.050995 0.000000 0.000000 0.000000 0.000000 0.000000 0.000000 -0.000000 0.000000 0.000000 -0.000000 0.000000 0.000000 2.626536 5.281388 0.770170 -3.865687 -10.438593 -2.435602 0.000000 0.000000 0.000000 0.000000 0.000000 0.000000 0.018647 0.073503 15.385033 -0.000000 0.000000 0.000000 -0.000000 0.000000 0.000000 0.000000 0.000000 0.000000 1.764695 -0.885200 15.992592 -1.852172 0.576028 -0.798140 0.425766 0.832285 0.224723 0.000000 0.000000 0.000000
-67.370175 72.431796 214.992810 -0.054024 -0.078295 -15.406538 0.031282 0.089833 15.406476 -0.000000 0.000000 0.000000 -0.000000 0.000000 0.000000 0.000000 0.000000 0.000000 -0.000000 0.000000 0.000000 -0.000000 0.000000 0.000000 -0.000000 0.000000 0.000000 3.170400 5.029014 0.039751 0.000000 0.000000 0.000000 0.000000 0.000000 0.000000 -0.000000 0.000000 0.000000 -0.000000 0.000000 0.000000 3.618059 7.389404 1.003103 -5.395629 -14.050036 -3.421110 0.000000 0.000000 0.000000 0.000000 0.000000 0.000000 0.031282 0.089833 15.406476 -0.000000 0.000000 0.000000 -0.000000 0.000000 0.000000 0.000000 0.000000 0.000000 1.768653 -0.539098 16.176294 -1.590571 -0.843917 -0.860684 0.067946 1.932947 0.110918 0.000000 0.000000 0.000000
-67.389186 72.433870 214.998488 -0.069105 -0.076941 -15.403808 0.046186 0.092533 15.403725 -0.000000 0.000000 0.000000 -0.000000 0.000000 0.000000 0.000000 0.000000 0.000000 -0.000000 0.000000 0.000000 -0.000000 0.000000 0.000000 -0.659197 -0.202906 -0.596704 4.261602 5.975226 0.614515 0.000000 0.000000 0.000000 0.000000 0.000000 0.000000 -0.000000 0.000000 0.000000 -0.000000 0.000000 0.000000 4.419776 9.169890 1.166359 -6.644271 -16.772572 -4.221961 0.000000 0.000000 0.000000 0.000000 0.000000 0.000000 0.046186 0.092533 15.403725 -0.000000 0.000000 0.000000 -0.000000 0.000000 0.000000 0.000000 0.000000 0.000000 1.142152 0.371444 16.241049 -0.533544 -3.426360 -0.677297 -0.638737 3.457651 -0.127158 0.000000 0.000000 0.000000
-67.416181 72.438506 215.018303 -0.082723 -0.061862 -15.376868 0.063358 0.081583 15.376778 -0.000000 0.000000 0.000000 -0.000000 0.000000 0.000000 0.000000 0.000000 0.000000 -0.000000 0.000000 0.000000 -0.000000 0.000000 0.000000 -1.122273 -1.129106 -1.185207 4.843702 7.142303 1.130025 0.000000 0.000000 0.000000 0.000000 0.000000 0.000000 -0.000000 0.000000 0.000000 -0.000000 0.000000 0.000000 5.044939 10.643134 1.277024 -7.594337 -18.672805 -4.808978 0.000000 0.000000 0.000000 0.000000 0.000000 0.000000 0.063358 0.081583 15.376778 -0.000000 0.000000 0.000000 -0.000000 0.000000 0.000000 0.000000 0.000000 0.000000 -0.172511 1.906895 16.206256 1.362168 -7.206504 -0.161002 -1.666788 5.380263 -0.460963 0.000000 0.000000 0.000000
-67.449593 72.446344 215.050802 -0.104216 -0.041060 -15.364520 0.089612 0.067205 15.364430 -0.000000 0.000000 0.000000 0.055399 0.823307 0.069926 0.000000 0.000000 0.000000 -0.000000 0.000000 0.000000 -0.000000 0.000000 0.000000 -2.507541 -3.628450 -2.891998 5.244163 9.745862 2.487769 0.000000 0.000000 0.000000 0.000000 0.000000 0.000000 -0.000000 0.000000 0.000000 -0.000000 0.000000 0.000000 6.022439 11.848952 1.424123 -8.675254 -18.337826 -4.940201 0.000000 0.000000 0.000000 0.000000 0.000000 0.000000 0.089612 0.067205 15.364430 -0.000000 0.000000 0.000000 -0.000000 0.000000 0.000000 0.000000 0.000000 0.000000 -2.311123 4.391660 16.250430 4.349454 -12.953951 0.868950 -3.146475 8.160455 -0.887253 0.000000 0.000000 0.000000
-67.489771 72.455487 215.098241 -0.112445 0.007341 -15.240027 0.110420 0.022475 15.240012 -0.000000 0.000000 0.000000 0.008253 1.112108 0.099363 0.000000 0.000000 0.000000 -0.000000 0.000000 0.000000 -0.000000 0.000000 0.000000 -3.438217 -5.717988 -4.127319 7.135608 11.691772 3.572185 0.000000 0.000000 0.000000 0.000000 0.000000 0.000000 -0.000000 0.000000 0.000000 -0.610585 -0.555806 -0.210891 7.111754 13.625989 1.631586 -9.822840 -20.428030 -5.718468 0.000000 0.000000 0.000000 0.000000 0.000000 0.000000 0.110420 0.022475 15.240012 -0.000000 0.000000 0.000000 -0.000000 0.000000 0.000000 0.000000 0.000000 0.000000 -5.807615 7.582645 15.899143 9.123134 -19.296372 3.177915 -4.887103 10.632637 -1.371265 0.000000 0.000000 0.000000
-67.547885 72.468191 215.169092 -0.115229 0.071837 -15.077327 0.129949 -0.039390 15.077444 -0.000000 0.000000 0.000000 -0.080439 1.422078 0.134244 0.000000 0.000000 0.000000 -0.000000 0.000000 0.000000 -0.000000 0.000000 0.000000 -4.199139 -7.166822 -5.084872 6.383961 11.443681 4.414536 0.000000 0.000000 0.000000 0.000000 0.000000 0.000000 -0.000000 0.000000 0.000000 -0.559323 -0.682282 -0.177535 6.989171 14.276122 1.567236 -9.727342 -20.555103 -5.656268 0.000000 0.000000 0.000000 0.000000 0.000000 0.000000 0.129949 -0.039390 15.077444 -0.000000 0.000000 0.000000 -0.000000 0.000000 0.000000 0.000000 0.000000 0.000000 -9.541744 11.310933 15.919029 14.290473 -25.953618 6.047061 -6.509852 13.020255 -1.751781 0.000000 0.000000 0.000000
-67.614722 72.482061 215.250048 -0.121769 0.140545 -14.943676 0.153893 -0.104391 14.943965 -0.000000 0.000000 0.000000 -0.147292 1.717853 0.166509 0.000000 0.000000 0.000000 -0.000000 0.000000 0.000000 0.728108 0.586011 0.101512 -4.447614 -7.067444 -4.661855 4.966270 10.110185 3.958797 0.000000 0.000000 0.000000 0.000000 0.000000 0.000000 -0.000000 0.000000 0.000000 -0.418485 -0.781444 -0.107838 5.865819 12.818844 1.368642 -8.859958 -18.409150 -4.950403 0.000000 0.000000 0.000000 0.000000 0.000000 0.000000 0.153893 -0.104391 14.943965 -0.000000 0.000000 0.000000 -0.000000 0.000000 0.000000 0.000000 0.000000 0.000000 -14.392583 16.401309 16.664632 21.568163 -34.891292 10.754533 -8.411780 16.477531 -2.037238 0.000000 0.000000 0.000000
